{
    "accessors" : [
        {
            "bufferView" : 0, 
            "componentType" : 5121, 
            "count" : 276, 
            "max" : [
                51
            ], 
            "min" : [
                0
            ], 
            "type" : "SCALAR"
        }, 
        {
            "bufferView" : 1, 
            "componentType" : 5126, 
            "count" : 52, 
            "max" : [
                0.5911037921905518, 
                -0.3172094523906708, 
                0.0483865886926651
            ], 
            "min" : [
                -0.5906956195831299, 
                -0.5118026733398438, 
                -0.08707672357559204
            ], 
            "type" : "VEC3"
        }, 
        {
            "bufferView" : 2, 
            "componentType" : 5126, 
            "count" : 52, 
            "max" : [
                0.9262672662734985, 
                0.8771629929542542, 
                0.8825647830963135
            ], 
            "min" : [
                -0.9506210684776306, 
                -0.9371929168701172, 
                -0.9079561829566956
            ], 
            "type" : "VEC3"
        }, 
        {
            "bufferView" : 3, 
            "componentType" : 5123, 
            "count" : 52, 
            "max" : [
                10, 
                9, 
                0, 
                0
            ], 
            "min" : [
                5, 
                0, 
                0, 
                0
            ], 
            "type" : "VEC4"
        }, 
        {
            "bufferView" : 4, 
            "componentType" : 5126, 
            "count" : 52, 
            "max" : [
                1.0018997192382812, 
                0.9640757441520691, 
                0.0, 
                0.0
            ], 
            "min" : [
                0.015959445387125015, 
                0.0, 
                0.0, 
                0.0
            ], 
            "type" : "VEC4"
        }, 
        {
            "bufferView" : 5, 
            "componentType" : 5123, 
            "count" : 52, 
            "max" : [
                0, 
                0, 
                0, 
                0
            ], 
            "min" : [
                0, 
                0, 
                0, 
                0
            ], 
            "type" : "VEC4"
        }, 
        {
            "bufferView" : 6, 
            "componentType" : 5126, 
            "count" : 52, 
            "max" : [
                0.0, 
                0.0, 
                0.0, 
                0.0
            ], 
            "min" : [
                0.0, 
                0.0, 
                0.0, 
                0.0
            ], 
            "type" : "VEC4"
        }, 
        {
            "bufferView" : 7, 
            "componentType" : 5121, 
            "count" : 246, 
            "max" : [
                40
            ], 
            "min" : [
                0
            ], 
            "type" : "SCALAR"
        }, 
        {
            "bufferView" : 8, 
            "componentType" : 5126, 
            "count" : 41, 
            "max" : [
                0.40322771668434143, 
                -0.12160554528236389, 
                0.08511219918727875
            ], 
            "min" : [
                -0.402330607175827, 
                -0.5035738945007324, 
                -0.08770981431007385
            ], 
            "type" : "VEC3"
        }, 
        {
            "bufferView" : 9, 
            "componentType" : 5126, 
            "count" : 41, 
            "max" : [
                0.7969603538513184, 
                0.8576616644859314, 
                0.9796441793441772
            ], 
            "min" : [
                -0.7454146146774292, 
                -0.7112643718719482, 
                -0.9985045790672302
            ], 
            "type" : "VEC3"
        }, 
        {
            "bufferView" : 10, 
            "componentType" : 5123, 
            "count" : 41, 
            "max" : [
                9, 
                9, 
                8, 
                8
            ], 
            "min" : [
                0, 
                0, 
                0, 
                0
            ], 
            "type" : "VEC4"
        }, 
        {
            "bufferView" : 11, 
            "componentType" : 5126, 
            "count" : 41, 
            "max" : [
                0.9889690279960632, 
                0.9640757441520691, 
                0.9090200066566467, 
                0.7459990382194519
            ], 
            "min" : [
                0.015959445387125015, 
                0.0, 
                0.0, 
                0.0
            ], 
            "type" : "VEC4"
        }, 
        {
            "bufferView" : 12, 
            "componentType" : 5123, 
            "count" : 41, 
            "max" : [
                4, 
                3, 
                0, 
                0
            ], 
            "min" : [
                0, 
                0, 
                0, 
                0
            ], 
            "type" : "VEC4"
        }, 
        {
            "bufferView" : 13, 
            "componentType" : 5126, 
            "count" : 41, 
            "max" : [
                0.11865920573472977, 
                0.0, 
                0.0, 
                0.0
            ], 
            "min" : [
                0.0, 
                0.0, 
                0.0, 
                0.0
            ], 
            "type" : "VEC4"
        }, 
        {
            "bufferView" : 14, 
            "componentType" : 5126, 
            "count" : 11, 
            "max" : [
                0.707786500453949, 
                0.9999207258224487, 
                0.010525227524340153, 
                0.0, 
                0.7057772278785706, 
                1.0000003576278687, 
                0.9999447464942932, 
                0.0, 
                0.9999759793281555, 
                0.042070016264915466, 
                0.04283566027879715, 
                0.0, 
                0.07225401699542999, 
                0.504688560962677, 
                0.15823636949062347, 
                1.0
            ], 
            "min" : [
                -0.9990828037261963, 
                -0.9999158382415771, 
                -0.9990589618682861, 
                0.0, 
                -0.7309840321540833, 
                -0.7084299921989441, 
                -0.7676877975463867, 
                0.0, 
                -0.9999749660491943, 
                -0.14770716428756714, 
                -0.9992452263832092, 
                0.0, 
                -0.03219415992498398, 
                -0.7052556872367859, 
                -0.01749073527753353, 
                1.0
            ], 
            "type" : "MAT4"
        }
    ], 
    "asset" : {
        "generator" : "Khronos Blender glTF 2.0 exporter", 
        "version" : "2.0"
    }, 
    "bufferViews" : [
        {
            "buffer" : 0, 
            "byteLength" : 276, 
            "byteOffset" : 0, 
            "target" : 34963
        }, 
        {
            "buffer" : 0, 
            "byteLength" : 624, 
            "byteOffset" : 276, 
            "target" : 34962
        }, 
        {
            "buffer" : 0, 
            "byteLength" : 624, 
            "byteOffset" : 900, 
            "target" : 34962
        }, 
        {
            "buffer" : 0, 
            "byteLength" : 416, 
            "byteOffset" : 1524, 
            "target" : 34962
        }, 
        {
            "buffer" : 0, 
            "byteLength" : 832, 
            "byteOffset" : 1940, 
            "target" : 34962
        }, 
        {
            "buffer" : 0, 
            "byteLength" : 416, 
            "byteOffset" : 2772, 
            "target" : 34962
        }, 
        {
            "buffer" : 0, 
            "byteLength" : 832, 
            "byteOffset" : 3188, 
            "target" : 34962
        }, 
        {
            "buffer" : 0, 
            "byteLength" : 246, 
            "byteOffset" : 4020, 
            "target" : 34963
        }, 
        {
            "buffer" : 0, 
            "byteLength" : 492, 
            "byteOffset" : 4268, 
            "target" : 34962
        }, 
        {
            "buffer" : 0, 
            "byteLength" : 492, 
            "byteOffset" : 4760, 
            "target" : 34962
        }, 
        {
            "buffer" : 0, 
            "byteLength" : 328, 
            "byteOffset" : 5252, 
            "target" : 34962
        }, 
        {
            "buffer" : 0, 
            "byteLength" : 656, 
            "byteOffset" : 5580, 
            "target" : 34962
        }, 
        {
            "buffer" : 0, 
            "byteLength" : 328, 
            "byteOffset" : 6236, 
            "target" : 34962
        }, 
        {
            "buffer" : 0, 
            "byteLength" : 656, 
            "byteOffset" : 6564, 
            "target" : 34962
        }, 
        {
            "buffer" : 0, 
            "byteLength" : 704, 
            "byteOffset" : 7220
        }
    ], 
    "buffers" : [
        {
            "byteLength" : 7924, 
            "uri" : "avatar_headless2.bin"
        }
    ], 
    "cameras" : [
        {
            "name" : "Camera", 
            "perspective" : {
                "aspectRatio" : 1.7777777777777777, 
                "yfov" : 0.5033799372418416, 
                "zfar" : 100.0, 
                "znear" : 0.10000000149011612
            }, 
            "type" : "perspective"
        }
    ], 
    "materials" : [
        {
            "name" : "black", 
            "pbrMetallicRoughness" : {
                "baseColorFactor" : [
                    0.0, 
                    0.0, 
                    0.0, 
                    1.0
                ], 
                "metallicFactor" : 0.0
            }
        }, 
        {
            "name" : "blue", 
            "pbrMetallicRoughness" : {
                "baseColorFactor" : [
                    0.0043278184432956335, 
                    0.43223643946999957, 
                    0.640000066757203, 
                    1.0
                ], 
                "metallicFactor" : 0.0
            }
        }, 
        {
            "name" : "pink", 
            "pbrMetallicRoughness" : {
                "baseColorFactor" : [
                    0.640000066757203, 
                    0.0, 
                    0.10271523151867434, 
                    1.0
                ], 
                "metallicFactor" : 0.0
            }
        }, 
        {
            "name" : "Skin", 
            "pbrMetallicRoughness" : {
                "baseColorFactor" : [
                    0.640000066757203, 
                    0.3341651489461235, 
                    0.09111619131440207, 
                    1.0
                ], 
                "metallicFactor" : 0.0
            }
        }
    ], 
    "meshes" : [
        {
            "name" : "Mesh.004", 
            "primitives" : [
                {
                    "attributes" : {
                        "JOINTS_0" : 3, 
                        "JOINTS_1" : 5, 
                        "NORMAL" : 2, 
                        "POSITION" : 1, 
                        "WEIGHTS_0" : 4, 
                        "WEIGHTS_1" : 6
                    }, 
                    "indices" : 0, 
                    "material" : 3
                }, 
                {
                    "attributes" : {
                        "JOINTS_0" : 10, 
                        "JOINTS_1" : 12, 
                        "NORMAL" : 9, 
                        "POSITION" : 8, 
                        "WEIGHTS_0" : 11, 
                        "WEIGHTS_1" : 13
                    }, 
                    "indices" : 7, 
                    "material" : 1
                }
            ]
        }
    ], 
    "nodes" : [
        {
            "children" : [
                1, 
                5, 
                6, 
                10, 
                11, 
                12, 
                13, 
                14, 
                15
            ], 
            "name" : "Armature", 
            "translation" : [
                0.0, 
                0.03622796759009361, 
                -0.0
            ]
        }, 
        {
            "mesh" : 0, 
            "name" : "avatar", 
            "skin" : 0
        }, 
        {
            "camera" : 0, 
            "name" : "Correction_Camera", 
            "rotation" : [
                -0.7071067690849304, 
                -0.0, 
                0.0, 
                0.7071067690849304
            ]
        }, 
        {
            "children" : [
                2
            ], 
            "name" : "Camera", 
            "rotation" : [
                0.04766102135181427, 
                0.778124988079071, 
                -0.6234676241874695, 
                0.05948207899928093
            ], 
            "scale" : [
                1.000000238418579, 
                1.0000001192092896, 
                1.0000001192092896
            ], 
            "translation" : [
                -0.08514551818370819, 
                0.6846357583999634, 
                -1.8055775165557861
            ]
        }, 
        {
            "name" : "Lamp", 
            "rotation" : [
                0.27572959661483765, 
                -0.554629921913147, 
                0.16320861876010895, 
                0.7679334878921509
            ], 
            "translation" : [
                -4.029574871063232, 
                5.435401916503906, 
                1.1798808574676514
            ]
        }, 
        {
            "name" : "Armature_Stomach", 
            "rotation" : [
                -1.3916885563958203e-06, 
                -0.9997707605361938, 
                0.0, 
                0.02141391485929489
            ], 
            "scale" : [
                1.0, 
                0.9999996423721313, 
                0.9999999403953552
            ], 
            "translation" : [
                -0.00012118043377995491, 
                -0.5046883821487427, 
                0.0008090734481811523
            ]
        }, 
        {
            "children" : [
                7, 
                8, 
                9
            ], 
            "name" : "Armature_Chest", 
            "rotation" : [
                -0.0033383143600076437, 
                -0.6917882561683655, 
                -0.005015826318413019, 
                0.7220752835273743
            ], 
            "scale" : [
                1.0, 
                0.9999998211860657, 
                0.9999998211860657
            ], 
            "translation" : [
                -0.00012118043377995491, 
                -0.33510079979896545, 
                0.0008090734481811523
            ]
        }, 
        {
            "name" : "Armature_Head", 
            "rotation" : [
                0.0024673454463481903, 
                1.7649293582167047e-08, 
                0.0020622999873012304, 
                0.9999949336051941
            ], 
            "scale" : [
                0.9999999403953552, 
                1.0, 
                1.0
            ], 
            "translation" : [
                2.9103830456733704e-11, 
                0.1768893599510193, 
                -5.093170329928398e-11
            ]
        }, 
        {
            "name" : "Armature_Collar.L", 
            "rotation" : [
                -0.013557778671383858, 
                0.698931872844696, 
                0.7149638533592224, 
                0.011711018159985542
            ], 
            "scale" : [
                0.9999999403953552, 
                1.0000001192092896, 
                1.0
            ], 
            "translation" : [
                2.9103830456733704e-11, 
                0.1768893599510193, 
                -5.093170329928398e-11
            ]
        }, 
        {
            "name" : "Armature_Collar.R", 
            "rotation" : [
                -0.7065388560295105, 
                -0.013485919684171677, 
                -0.011913067661225796, 
                0.707445502281189
            ], 
            "scale" : [
                0.9999999403953552, 
                0.9999999403953552, 
                0.9999999403953552
            ], 
            "translation" : [
                2.9103830456733704e-11, 
                0.1768893599510193, 
                -5.093170329928398e-11
            ]
        }, 
        {
            "name" : "Armature_UpperArm.L", 
            "rotation" : [
                0.9169789552688599, 
                -0.39846235513687134, 
                -0.01848522014915943, 
                0.005973895080387592
            ], 
            "scale" : [
                0.9999999403953552, 
                0.9999998807907104, 
                0.9999999403953552
            ], 
            "translation" : [
                -0.1950082629919052, 
                -0.16036540269851685, 
                0.0025777779519557953
            ]
        }, 
        {
            "name" : "Armature_LowerArm.L", 
            "rotation" : [
                -0.6318307518959045, 
                0.2937224507331848, 
                0.6625996232032776, 
                0.27473393082618713
            ], 
            "scale" : [
                1.0, 
                0.9999999403953552, 
                1.0
            ], 
            "translation" : [
                -0.39508605003356934, 
                -0.34333157539367676, 
                0.009232599288225174
            ]
        }, 
        {
            "name" : "Armature_Hand.L", 
            "rotation" : [
                -0.6299923658370972, 
                0.29834598302841187, 
                0.6575705409049988, 
                0.2858326733112335
            ], 
            "scale" : [
                1.0, 
                1.0, 
                1.0000001192092896
            ], 
            "translation" : [
                -0.5288091897964478, 
                -0.466370165348053, 
                0.01688413694500923
            ]
        }, 
        {
            "name" : "Armature_UpperArm.R", 
            "rotation" : [
                0.9240397810935974, 
                0.3817608058452606, 
                -0.01911678910255432, 
                -0.006612807046622038
            ], 
            "scale" : [
                1.0, 
                0.9999999403953552, 
                0.9999999403953552
            ], 
            "translation" : [
                0.2053862065076828, 
                -0.16036540269851685, 
                -0.00022502988576889038
            ]
        }, 
        {
            "name" : "Armature_LowerArm.R", 
            "rotation" : [
                0.6097719073295593, 
                0.3384191393852234, 
                -0.6711642742156982, 
                0.25137466192245483
            ], 
            "scale" : [
                1.0000001192092896, 
                1.0, 
                1.0
            ], 
            "translation" : [
                0.3882462680339813, 
                -0.3379894196987152, 
                -0.0036984682083129883
            ]
        }, 
        {
            "name" : "Armature_Hand.R", 
            "rotation" : [
                0.6488101482391357, 
                0.3368024528026581, 
                -0.628688633441925, 
                0.2652549743652344
            ], 
            "translation" : [
                0.5303969383239746, 
                -0.46013328433036804, 
                -0.03168864548206329
            ]
        }
    ], 
    "scene" : 0, 
    "scenes" : [
        {
            "name" : "Scene", 
            "nodes" : [
                0, 
                4, 
                3
            ]
        }
    ], 
    "skins" : [
        {
            "inverseBindMatrices" : 14, 
            "joints" : [
                5, 
                6, 
                7, 
                8, 
                9, 
                10, 
                11, 
                12, 
                13, 
                14, 
                15
            ], 
            "skeleton" : 0
        }
    ]
}
