{
    "accessors" : [
        {
            "bufferView" : 0, 
            "componentType" : 5121, 
            "count" : 321, 
            "max" : [
                190
            ], 
            "min" : [
                0
            ], 
            "type" : "SCALAR"
        }, 
        {
            "bufferView" : 1, 
            "componentType" : 5126, 
            "count" : 191, 
            "max" : [
                1.3897851705551147, 
                1.0266635417938232, 
                0.9098159074783325
            ], 
            "min" : [
                -1.3897851705551147, 
                -0.7460389137268066, 
                -0.8181453943252563
            ], 
            "type" : "VEC3"
        }, 
        {
            "bufferView" : 2, 
            "componentType" : 5126, 
            "count" : 191, 
            "max" : [
                1.0, 
                0.9999999403953552, 
                0.9999285340309143
            ], 
            "min" : [
                -1.0, 
                -1.0, 
                -0.9932597875595093
            ], 
            "type" : "VEC3"
        }, 
        {
            "bufferView" : 3, 
            "componentType" : 5123, 
            "count" : 191, 
            "max" : [
                0, 
                0, 
                0, 
                0
            ], 
            "min" : [
                0, 
                0, 
                0, 
                0
            ], 
            "type" : "VEC4"
        }, 
        {
            "bufferView" : 4, 
            "componentType" : 5126, 
            "count" : 191, 
            "max" : [
                0.0, 
                0.0, 
                0.0, 
                0.0
            ], 
            "min" : [
                0.0, 
                0.0, 
                0.0, 
                0.0
            ], 
            "type" : "VEC4"
        }, 
        {
            "bufferView" : 5, 
            "componentType" : 5121, 
            "count" : 174, 
            "max" : [
                97
            ], 
            "min" : [
                0
            ], 
            "type" : "SCALAR"
        }, 
        {
            "bufferView" : 6, 
            "componentType" : 5126, 
            "count" : 98, 
            "max" : [
                1.4014551639556885, 
                1.0266635417938232, 
                0.9098159074783325
            ], 
            "min" : [
                -1.4014551639556885, 
                -0.690082311630249, 
                -0.8479270339012146
            ], 
            "type" : "VEC3"
        }, 
        {
            "bufferView" : 7, 
            "componentType" : 5126, 
            "count" : 98, 
            "max" : [
                0.9703298211097717, 
                0.9999014139175415, 
                0.923052191734314
            ], 
            "min" : [
                -0.9703298211097717, 
                -0.9986104965209961, 
                -0.899140477180481
            ], 
            "type" : "VEC3"
        }, 
        {
            "bufferView" : 8, 
            "componentType" : 5123, 
            "count" : 98, 
            "max" : [
                0, 
                0, 
                0, 
                0
            ], 
            "min" : [
                0, 
                0, 
                0, 
                0
            ], 
            "type" : "VEC4"
        }, 
        {
            "bufferView" : 9, 
            "componentType" : 5126, 
            "count" : 98, 
            "max" : [
                0.0, 
                0.0, 
                0.0, 
                0.0
            ], 
            "min" : [
                0.0, 
                0.0, 
                0.0, 
                0.0
            ], 
            "type" : "VEC4"
        }
    ], 
    "asset" : {
        "generator" : "Khronos Blender glTF 2.0 exporter", 
        "version" : "2.0"
    }, 
    "bufferViews" : [
        {
            "buffer" : 0, 
            "byteLength" : 321, 
            "byteOffset" : 0, 
            "target" : 34963
        }, 
        {
            "buffer" : 0, 
            "byteLength" : 2292, 
            "byteOffset" : 324, 
            "target" : 34962
        }, 
        {
            "buffer" : 0, 
            "byteLength" : 2292, 
            "byteOffset" : 2616, 
            "target" : 34962
        }, 
        {
            "buffer" : 0, 
            "byteLength" : 1528, 
            "byteOffset" : 4908, 
            "target" : 34962
        }, 
        {
            "buffer" : 0, 
            "byteLength" : 3056, 
            "byteOffset" : 6436, 
            "target" : 34962
        }, 
        {
            "buffer" : 0, 
            "byteLength" : 174, 
            "byteOffset" : 9492, 
            "target" : 34963
        }, 
        {
            "buffer" : 0, 
            "byteLength" : 1176, 
            "byteOffset" : 9668, 
            "target" : 34962
        }, 
        {
            "buffer" : 0, 
            "byteLength" : 1176, 
            "byteOffset" : 10844, 
            "target" : 34962
        }, 
        {
            "buffer" : 0, 
            "byteLength" : 784, 
            "byteOffset" : 12020, 
            "target" : 34962
        }, 
        {
            "buffer" : 0, 
            "byteLength" : 1568, 
            "byteOffset" : 12804, 
            "target" : 34962
        }
    ], 
    "buffers" : [
        {
            "byteLength" : 14372, 
            "uri" : "head3.bin"
        }
    ], 
    "cameras" : [
        {
            "name" : "Camera", 
            "perspective" : {
                "aspectRatio" : 1.7777777777777777, 
                "yfov" : 0.5033799372418416, 
                "zfar" : 100.0, 
                "znear" : 0.10000000149011612
            }, 
            "type" : "perspective"
        }
    ], 
    "materials" : [
        {
            "name" : "Material", 
            "pbrMetallicRoughness" : {
                "baseColorFactor" : [
                    0.7228177655163073, 
                    0.48501940496294793, 
                    0.42078266770813855, 
                    1.0
                ], 
                "metallicFactor" : 0.0
            }
        }, 
        {
            "name" : "Material.001", 
            "pbrMetallicRoughness" : {
                "baseColorFactor" : [
                    0.5247399885168669, 
                    0.2675781289872248, 
                    0.011993501514099558, 
                    1.0
                ], 
                "metallicFactor" : 0.0
            }
        }, 
        {
            "name" : "yellow", 
            "pbrMetallicRoughness" : {
                "baseColorFactor" : [
                    0.5536567770489569, 
                    0.29482675038019934, 
                    0.0, 
                    1.0
                ], 
                "metallicFactor" : 0.0
            }
        }
    ], 
    "meshes" : [
        {
            "name" : "Cube.001", 
            "primitives" : [
                {
                    "attributes" : {
                        "JOINTS_0" : 3, 
                        "NORMAL" : 2, 
                        "POSITION" : 1, 
                        "WEIGHTS_0" : 4
                    }, 
                    "indices" : 0, 
                    "material" : 0
                }, 
                {
                    "attributes" : {
                        "JOINTS_0" : 8, 
                        "NORMAL" : 7, 
                        "POSITION" : 6, 
                        "WEIGHTS_0" : 9
                    }, 
                    "indices" : 5, 
                    "material" : 1
                }
            ]
        }
    ], 
    "nodes" : [
        {
            "camera" : 0, 
            "name" : "Correction_Camera", 
            "rotation" : [
                -0.7071067690849304, 
                -0.0, 
                0.0, 
                0.7071067690849304
            ]
        }, 
        {
            "children" : [
                0
            ], 
            "name" : "Camera", 
            "rotation" : [
                0.483536034822464, 
                0.33687159419059753, 
                -0.20870360732078552, 
                0.7804827094078064
            ], 
            "translation" : [
                7.481131553649902, 
                5.34366512298584, 
                6.5076398849487305
            ]
        }, 
        {
            "mesh" : 0, 
            "name" : "Cube.001", 
            "scale" : [
                0.04999997839331627, 
                0.10000000149011612, 
                0.09999995678663254
            ]
        }, 
        {
            "name" : "Lamp", 
            "rotation" : [
                0.16907575726509094, 
                0.7558802962303162, 
                -0.27217137813568115, 
                0.570947527885437
            ], 
            "scale" : [
                1.0, 
                1.0, 
                0.9999999403953552
            ], 
            "translation" : [
                4.076245307922363, 
                5.903861999511719, 
                -1.0054539442062378
            ]
        }
    ], 
    "scene" : 0, 
    "scenes" : [
        {
            "name" : "Scene", 
            "nodes" : [
                2, 
                3, 
                1
            ]
        }
    ]
}
